# xmcd
#
# Track frame offsets:
#	150
#	14995
#	28564
#	41277
#
# Disc length: 708 seconds
#
# Revision: 0
# Processed by: cddbd v1.5.2PL0 Copyright (c) Steve Scherf et al.
# Submitted via: EZCDAudioConverter 3.1.7.1
#
DISCID=2a02c204
DTITLE=Μανώλης Λιδάκης - Όσα Σου Έχω Πει
DYEAR=2004
DGENRE=laiko
TTITLE0=Σε Ψηλό Βουνό
TTITLE1=Φιλεντέμ
TTITLE2=Αρετούσα(Απο Τον Ερωτόκριτο)
TTITLE3=Μ'εκαψες Γειτόνισσα
EXTD=
EXTT0=
EXTT1=
EXTT2=
EXTT3=
PLAYORDER=
